<svg xmlns="http://www.w3.org/2000/svg" width="500" height="500" version="1.1"><path fill="#7B3410" d="m166 123 3 1 .148 3.027.227 3.91.21 3.903L170 138l2 1c.257 1.939.506 3.88.708 5.825 2.057 15.347 13.959 31.449 25.515 41.132 4.058 2.985 8.278 5.707 12.502 8.45 6.157 4.055 10.706 7.68 12.65 15.03L224 213l1.676-1.816c3.067-2.882 6.475-4.577 10.18-6.524 2.385-1.513 2.385-1.513 2.945-4.351L239 198c-3.058-.544-5.888-1-9-1-.362-5.426-.362-5.426 1.063-7.688 7.244-4.907 15.103-5.876 23.687-4.875 4.818 2.317 7.639 4.864 10.25 9.563 1.88 5.528 2.951 11.267 4 17l.777-1.941c3.16-7.137 6.834-10.74 13.223-15.059 22.697-16.037 35.712-34.05 40.688-61.84.476-3.05.92-6.098 1.312-9.16 1.832.195 1.832.195 4 1 1.45 2.18 1.45 2.18 2.688 4.875l1.261 2.68c4.209 9.794 1.678 18.803-1.949 28.445-1.224 2.758-2.547 5.353-4 8l2.375-2.5C332 163 332 163 334 163l.773-1.777c1.348-2.443 2.806-3.898 4.852-5.786 4.163-4.018 7.372-8.435 10.613-13.214C352 140 352 140 355 139c2.303 4.607 1.55 10.764.352 15.633-4.43 12.08-13.592 19.583-23.352 27.367 10.624-6.225 21.138-12.474 31.06-19.784 1.596-1.147 3.263-2.192 4.94-3.216l3 1c.377 6.966-1.983 11.42-6 17-6.111 6.207-13.035 10.562-21 14a399.633 399.633 0 0 0 16.043-4.535l2.688-.822c1.789-.549 3.576-1.103 5.362-1.661l2.528-.775 2.264-.704C375 182 375 182 379 182c-.216 5.29-1.294 8.424-4.953 12.3-9.907 8.225-22.594 10.185-34.965 11.778l-2.077.272c-1.668.218-3.336.434-5.005.65l3.098-.184c3.856-.227 7.712-.45 11.569-.67 1.657-.096 3.314-.193 4.971-.292 9.802-.58 19.54-1.012 29.362-.854-.624 4.392-1.722 6.13-5.32 8.867-6.045 4.077-11.47 5.192-18.637 5.45l-3.37.126-3.486.12-3.544.13c-2.881.106-5.762.208-8.643.307 3.943.819 7.898 1.486 11.875 2.121 1.328.215 2.656.43 3.984.647 2.074.336 4.147.67 6.221 1 2.016.32 4.03.649 6.045.978l3.633.584c2.956.61 5.492 1.446 8.242 2.67-.125 1.75-.125 1.75-1 4-8.266 6.29-17.568 5.884-27.511 4.701-5.19-.76-10.341-1.7-15.489-2.701l2.228.747c3.385 1.14 6.766 2.29 10.147 3.44l3.504 1.174C366 244.872 366 244.872 370 248c.763 2.657.763 2.657 1 5-10.286 4.762-18.804 2.098-29.125-1.563l-2.898-.998A895.22 895.22 0 0 1 332 248l2.02 1.066c9.166 4.91 18.19 9.986 25.98 16.934-1 3-1 3-3 4-9.98 1.654-17.459-2.482-26-7 1.183 3.55 2.207 4.113 5.188 6.25 8.496 6.43 8.496 6.43 10.812 10.75-.352 2.207-.352 2.207-1 4-9.392.783-14.855-2.08-22-8l-3-1c.914 1.085 1.832 2.168 2.75 3.25l1.652 1.95c1.641 1.92 1.641 1.92 3.91 3.863 2.208 2.534 2.389 4.644 2.688 7.937-5.33 1.466-9.252.62-14-2-3.829-2.765-7.654-5.654-11-9l2.188 2.957 2.812 3.856 1.445 1.947 1.368 1.885 1.269 1.73C317 295 317 295 317 298c-4.442 1.356-6.706.591-10.813-1.438l-2.957-1.433L301 294v7c-9.38-.335-14.128-4.836-20.375-11.5-5.374-6.133-9.999-12.797-14.625-19.5l-.184 1.898-.253 2.477-.247 2.46C265 279 265 279 264 281c2.572 9.185 10.447 13.883 17.793 19.282 19.39 14.254 19.39 14.254 24.207 23.718v3c-4.299 1.153-7.075 1.039-11.121-.898-3.517-2.062-6.704-4.554-9.879-7.102l1.46 1.977c4.46 6.17 8.004 11.135 7.54 19.023-2.125.75-2.125.75-5 1-5.55-2.716-8.597-7.029-12-12 .592 2.667 1.275 4.528 2.563 7 2.287 5.076 1.678 10.555 1.437 16l-3 1c-5.44-2.741-7.495-5.928-9.875-11.25l-.93-1.969A340.906 340.906 0 0 1 265 335l.438 2.527C268.387 355.41 268.387 355.41 264 364c-2.478-.342-3.73-.724-5.5-2.531-2.07-3.406-2.811-6.859-3.688-10.719l-.537-2.258c-.433-1.829-.855-3.66-1.275-5.492l-.044 2.076c-.075 3.142-.172 6.283-.268 9.424l-.069 3.266c-.244 7.291-1.345 12.685-4.619 19.234-1.813-.063-1.813-.063-4-1-3.894-6.566-3.55-13.474-3.688-20.938l-.103-3.806c-.082-3.085-.151-6.17-.209-9.256l-.77 3.324-1.042 4.363-.502 2.186c-1.008 4.164-2.114 7.612-4.686 11.127-2.063.938-2.063.938-4 1-3.073-3.073-2.98-5.575-3.188-9.875.054-6.44 1.177-12.778 2.188-19.125l-1.32 2.922-1.805 3.828-.86 1.922c-2.17 4.53-4.388 6.996-9.015 9.328l-3-1c-.545-7.959.511-13.82 4-21l-1-1-1.137 1.645c-5.488 7.672-5.488 7.672-9.863 9.355-2.813-.313-2.813-.313-5-1 .747-8.662 3.885-14.087 9-21l-1.54 1.207c-10.832 8.338-10.832 8.338-18.46 7.793-.688-1.625-.688-1.625-1-4 1.438-3.25 1.438-3.25 3-6h2l.648-1.688c1.8-3.078 4.258-5.079 6.977-7.312l1.709-1.426c5.886-4.857 11.997-9.413 18.135-13.945 2.9-2.143 5.733-4.353 8.531-6.629l-.563-1.75c-.437-2.25-.437-2.25.063-4 .782-3.52.033-6.698-.5-10.25-3.175 3.01-5.737 6.218-8.313 9.75C206.674 296.894 206.674 296.894 197 301c-2.805.156-2.805.156-5 0 .475-4.116 1.021-7.364 3-11l-1.285 1.207c-4.036 3.646-7.5 6.152-12.715 7.793-2.938-.313-2.938-.313-5-1 .537-3.806 1.433-5.988 3.906-8.918l1.754-2.111 1.84-2.159c1.2-1.43 2.397-2.86 3.594-4.292l1.615-1.904c1.37-1.599 1.37-1.599 2.291-3.616l-1.398 1.723c-5.92 7.008-12.69 13.406-21.602 16.277-3.813-.375-3.813-.375-7-1 .4-4.95 2.932-7.587 6.25-11l1.45-1.54c3.04-3.212 6.161-6.343 9.3-9.46l2-2-1.342 1.038a1512.16 1512.16 0 0 1-6.158 4.712l-2.11 1.633c-12.238 9.292-12.238 9.292-19.89 8.867l-2.594-.11L146 284c-.346-3.185-.306-4.582 1.617-7.21 4.855-4.654 9.778-8.7 15.414-12.38 2.091-1.266 2.091-1.266 2.969-3.41l-1.554.826c-18.865 9.885-18.865 9.885-29.446 8.174l-2-4c6.198-6.043 13.491-9.826 21.035-13.923 3.012-1.651 5.988-3.364 8.965-5.077l-1.937.719a1343.864 1343.864 0 0 1-8.875 3.219l-3.045 1.13c-7.603 2.714-16.357 5.735-24.268 2.682C122 253 122 253 121 250c2.457-2.858 4.932-3.995 8.41-5.375l3.252-1.297 3.4-1.328 3.319-1.328c6.46-2.555 12.925-4.816 19.619-6.672l-3.375.656c-27.612 5.139-27.612 5.139-38.117-.433C116 233 116 233 114.938 230.25L115 228c4.435-2.046 8.8-2.77 13.582-3.508l2.467-.395c2.587-.413 5.175-.817 7.763-1.222l5.28-.84c4.302-.684 8.604-1.362 12.908-2.035l-2.412-.028c-3.655-.054-7.309-.138-10.963-.222l-3.793-.043c-10.067-.264-18.927-2.185-26.832-8.707-1.375-2.75-1.375-2.75-2-5 1-1 1-1 3.492-1.133 10.194.024 20.334.526 30.508 1.133v-2l-3.313-.25c-10.612-1.388-20.065-5.867-26.75-14.375-1.038-2.63-1.177-4.571-.937-7.375 5.892.648 11.29 2.17 16.938 3.938 5.99 1.855 11.962 3.599 18.062 5.062l-1.8-.777c-11.031-5.095-19.047-11.294-24.274-22.426-.925-2.794-1.123-4.879-.926-7.797l3-1c2.373 1.216 2.373 1.216 5.148 3.078l3.047 2.02 3.18 2.152 6.21 4.14 2.784 1.877c2.505 1.65 5.047 3.21 7.631 4.733-2.889-3.944-5.752-7.768-9.125-11.313-5.3-6.122-7.358-13.83-7.21-21.812C137 142 137 142 139 139h2a120.86 120.86 0 0 1 4.5 5.813c4.806 6.433 9.995 12.342 15.5 18.187l2-1-.875-1.844c-3.78-8.923-5.182-18.984-2.066-28.332 1.66-3.403 3.26-6.143 5.941-8.824Zm0 45 2 2v-2h-2Zm-12 9c2.528 2.799 4.204 4.458 8 5-2.528-2.799-4.204-4.458-8-5Zm8 5 1 2 2-1-3-1Zm-11 24v1c6.382.824 12.567 1.12 19 1v-1c-6.374-.962-12.56-1.107-19-1Zm172 1v1h5v-1h-5Zm-147 47c-2.486 1.223-2.486 1.223-5.125 2.938l-2.758 1.714L166 260l3 1c2.35-1.202 2.35-1.202 4.688-2.938l2.449-1.714L178 255l-2-1Zm142 2c2.363 2.526 3.665 3.888 7 5l-1-3c-3.008-1.225-3.008-1.225-6-2Zm-9 8v2l2-1-2-1Zm4 4 4 4-2-4h-2Zm-10 8v2l2-1-2-1Zm-12 5 1 2Zm-93 4 1 2Zm96 0c1.242 3.44 2.557 6.252 5 9h2c-1.555-3.817-4.036-6.192-7-9Zm-53 40v7h1v-7h-1Zm-24 1 1 2Zm34 1 1 4Zm-22 3 1 2Z"/><path fill="#F73332" d="M339 362c2.748 1.35 5.339 2.883 7.938 4.5 1.478.9 2.957 1.798 4.437 2.695l2.29 1.4a305.401 305.401 0 0 0 7.147 4.147l2.348 1.338c1.49.847 2.984 1.687 4.482 2.52 3.638 2.091 5.864 3.453 7.358 7.4.28 2.194.28 2.194.322 4.597l.058 2.741.026 2.94.035 3.04c.019 2.12.032 4.242.04 6.362a723.4 723.4 0 0 0 .144 9.724c.013 2.062.024 4.124.031 6.186l.075 2.933c-.032 4.82-.068 6.754-3.427 10.417L369 437l-2.741 1.773-2.779 1.602-3.1 1.797-3.192 1.828-3.159 1.828a939.516 939.516 0 0 1-6.16 3.527 202.504 202.504 0 0 0-5.39 3.196c-4.65 2.8-7.898 4.367-13.479 3.449-2.531-1.205-4.635-2.347-6.938-3.875-.588-.365-1.176-.73-1.783-1.105-1.47-.94-2.882-1.974-4.279-3.02v-2c2.688-1.625 2.688-1.625 6-3 3.232.827 5.21 2.14 8 4 5.294 0 8.96-2.603 13.293-5.324 3.478-2.154 7.065-4.069 10.676-5.988L357 434l2.548-.79c3.385-1.342 5.129-2.371 7.452-5.21 1.753-6.716.93-14.016.625-20.875-.05-1.948-.096-3.896-.137-5.844-.11-4.763-.282-9.52-.488-14.281l-2.674-.817c-3.135-1.115-5.703-2.41-8.549-4.117l-2.88-1.716-2.96-1.788-2.97-1.775c-7.75-4.635-7.75-4.635-10.473-6.541-2.398-1.453-2.398-1.453-4.959-1.124-2.942 1.02-5.418 2.343-8.098 3.933l-3.164 1.863-3.273 1.957-3.273 1.934c-5.755 3.4-5.755 3.4-11.45 6.899C300 387 300 387 298 387a773.207 773.207 0 0 0-.55 17.188c-.05 1.948-.118 3.895-.204 5.842-.958 10.904-.958 10.904 2.814 20.614 4.668 2.977 8.44 3.575 13.94 3.356l-.016-3.931c-.018-4.795-.03-9.59-.039-14.386a3608.66 3608.66 0 0 0-.02-6.236c-.013-2.981-.018-5.962-.023-8.943l-.015-2.835v-2.608l-.007-2.308C314 391 314 391 315 390c2.333-.04 4.667-.042 7 0 .076 6.46.129 12.919.165 19.379.015 2.197.035 4.394.061 6.59.037 3.16.054 6.32.067 9.48.015.98.03 1.961.047 2.971.001 5.001-.012 8.549-3.34 12.58-3.489 2.713-7.77 2.511-12 2-2.641-.971-4.933-2.321-7.313-3.813l-1.837-1.08c-5.899-3.536-5.899-3.536-7.85-6.107v-3l-3.375.5C283 430 283 430 281 430l-3-10-14 1-4 9h-7c-1.485-4.613.112-8.063 1.71-12.45.289-.812.576-1.626.872-2.464.61-1.715 1.223-3.429 1.842-5.14.95-2.63 1.885-5.265 2.818-7.901a5142.84 5142.84 0 0 1 2.637-7.393c2.003-5.534 2.003-5.534 3.121-6.652 1.96-.203 1.96-.203 4.375-.25l2.398-.078c2.891.426 3.415 1.036 5.227 3.328 1.001 2.43 1.88 4.802 2.7 7.293l.726 2.14a1270.36 1270.36 0 0 1 2.262 6.755c.515 1.528 1.031 3.056 1.548 4.583 1.264 3.74 2.517 7.484 3.764 11.229l.012-3.301c.022-4.06.077-8.118.14-12.178.024-1.753.038-3.507.044-5.26.009-2.528.05-5.054.097-7.581l-.012-2.359c.11-4.15.533-6.035 2.867-9.617 2.925-2.774 5.67-4.683 9.184-6.65l1.804-1.021a724.03 724.03 0 0 1 5.676-3.158c1.26-.709 2.518-1.418 3.776-2.129a531.407 531.407 0 0 1 7.239-4.005 144.219 144.219 0 0 0 5.561-3.193c5.158-3.007 8.344-2.832 13.612-.548Zm-69 37c-2.6 6.806-2.6 6.806-3 14h8c-.539-5.277-1.773-9.256-4-14h-1Z"/><path fill="#773211" d="M178 390c1.96 3.652 3.149 7.49 4.375 11.438l1.074 3.22C186 412.444 186 412.444 186 416h2l.625-3.438c1.097-4.961 2.702-9.709 4.375-14.5l.792-2.296c1.962-5.52 1.962-5.52 4.208-7.766l10 1v40c-7 1-7 1-9 0l-1-20-1.39 4.34-1.86 5.598-.91 2.865-.918 2.724-.825 2.524C191 429 191 429 189.13 429.78 187 430 187 430 183 430c-1.147-3.104-2.292-6.208-3.438-9.313l-.986-2.67-.947-2.568-.873-2.364A205.468 205.468 0 0 1 175 408l-1 21c-7 1-7 1-9 0l1-40c8.153-1.359 8.153-1.359 12 1Z"/><path fill="#F43333" d="M341 364c9.37 4.45 18.165 9.588 27 15l2.816 1.52c2.501 1.695 3.07 2.713 4.184 5.48.28 2.194.28 2.194.322 4.597l.058 2.741.026 2.94.035 3.04c.019 2.12.032 4.242.04 6.362a723.4 723.4 0 0 0 .144 9.724c.013 2.062.024 4.124.031 6.186l.075 2.933c-.032 4.82-.068 6.754-3.427 10.417L369 437l-2.741 1.773-2.779 1.602-3.1 1.797-3.192 1.828-3.159 1.828a939.516 939.516 0 0 1-6.16 3.527 202.504 202.504 0 0 0-5.39 3.196c-4.65 2.8-7.898 4.367-13.479 3.449-2.531-1.205-4.635-2.347-6.938-3.875-.588-.365-1.176-.73-1.783-1.105-1.47-.94-2.882-1.974-4.279-3.02v-2c2.688-1.625 2.688-1.625 6-3 3.232.827 5.21 2.14 8 4 5.294 0 8.96-2.603 13.293-5.324 3.478-2.154 7.065-4.069 10.676-5.988L357 434l2.548-.79c3.385-1.342 5.129-2.371 7.452-5.21 1.753-6.716.93-14.016.625-20.875-.05-1.948-.096-3.896-.137-5.844-.11-4.763-.282-9.52-.488-14.281l-2.649-.796c-3.31-1.19-5.982-2.616-8.968-4.462l-3.086-1.894-3.172-1.973-3.242-1.996c-2.631-1.621-5.259-3.247-7.883-4.879l2-1c.658-3.03.658-3.03 1-6Z"/><path fill="#7F3C1B" d="M264 240h1l-.035 2.152c-.01.92-.018 1.839-.027 2.786l-.036 2.777c-.161 2.25-.161 2.25 1.098 3.285l-.219 2.957c-.677 9.282.429 13.883 6.703 21.184L275 278a368.54 368.54 0 0 1 4.25 6c2.576 3.699 5.2 6.236 8.75 9l1 2a82.873 82.873 0 0 0 5.563 2.125l3.066 1.07L300 299l1-2v4c-9.38-.335-14.128-4.836-20.375-11.5-5.374-6.133-9.999-12.797-14.625-19.5l-.184 1.898-.253 2.477-.247 2.46C265 279 265 279 264 281c1.707 6.098 4.934 9.108 9.746 13.105 2.213 1.86 4.239 3.825 6.254 5.895-3.999-.615-6.804-2.603-10-5v-2h-3l-1.19-1.962c-1.759-2.417-1.759-2.417-5.363-2.584-1.465-.041-2.93-.061-4.396-.063l-2.341-.05a653.65 653.65 0 0 0-7.398-.091c-1.672-.028-3.345-.058-5.017-.09-4.098-.074-8.196-.123-12.295-.16l-1 3c-1.777 1.605-1.777 1.605-3.938 3.188l-2.152 1.605C220 297 220 297 218 297c1.426-3.452 3.097-5.101 6.125-7.25l2.195-1.578L228 287l-.531-1.89C227 283 227 283 227.5 281.25c.782-3.52.033-6.698-.5-10.25-3.175 3.01-5.737 6.218-8.313 9.75C206.674 296.894 206.674 296.894 197 301c-2.805.156-2.805.156-5 0v-5h2v2c4.79-.3 7.544-2.72 11.133-5.625C207 291 207 291 210 290c.68-1.661 1.344-3.33 2-5 1.541-2.37 3.262-4.585 5-6.813l1.367-1.81c1.16-1.5 2.391-2.944 3.633-4.377h2c1.657-3.752 2.502-7.264 3.125-11.313l.508-3.238L228 255l2 1 1 3 3 2c.188 3.125.188 3.125 0 6l-3 1c-.544 3.058-1 5.888-1 9l2 2c.707 1.65 1.38 3.316 2 5 3.38-.74 3.38-.74 4.813-4.5 1.591-2.97 1.834-3.375 5.187-4.563 3.005.063 4.513.437 7 2.063l-2-4-2 1v-4l-2-1 4-2-1-3 3 1v3h3c2.188 1 2.188 1 4 2l1-3 3-2v-2h-2l-.375-1.875c-.497-2.316-.497-2.316-2.625-4.125.238-4.396 2.141-6.773 5-10l-1-2c1.375-2.625 1.375-2.625 3-5Z"/><path fill="#763110" d="M220.082 387.867c2.975.009 5.944.053 8.918.133l3.223.086c4.461.232 7.925.496 11.964 2.476 2.505 3.37 3.125 6.264 2.813 10.438-1.438 3.5-1.438 3.5-3 6l2.438 2.125c2.89 3.243 3.476 4.586 3.562 8.875-.652 4.204-1.223 6.308-4.426 9.16-4.388 2.742-9.163 2.552-14.199 2.652l-2.852.116c-4.089.136-7.56.128-11.523-.928-.025-5.678-.043-11.357-.055-17.035-.005-1.933-.012-3.866-.02-5.8-.013-2.772-.018-5.545-.023-8.317l-.015-2.636c0-2.071.05-4.142.113-6.212 1-1 1-1 3.082-1.133ZM227 395c-1.206.983-1.206.983-1.098 2.848l.036 2.214L226 404c1.625.054 3.25.093 4.875.125l2.742.07c2.571.048 2.571.048 4.383-2.195-.322-3.1-.322-3.1-1-6-1.645-.194-3.291-.38-4.938-.563l-2.777-.316L227 395Zm0 16c-1.26 1.034-1.26 1.034-1.098 3.285l.036 2.777.027 2.786L226 422c1.936.108 3.874.186 5.813.25l3.269.14c2.998-.113 2.998-.113 4.856-2.202 1.404-2.297 1.404-2.297.25-5.438L239 412l-3.75-.5-2.11-.281c-2.445-.287-2.445-.287-6.14-.219Z"/><path fill="#773210" d="M95.146 387.915c3.035.07 6.07.164 9.104.273l3.184.056c7.73.28 7.73.28 11.738 2.565 2.743 3.288 3.143 5.978 2.828 10.191-1.437 3.5-1.437 3.5-3 6l2.438 2.125c2.89 3.243 3.476 4.586 3.562 8.875-.66 4.253-1.339 6.356-4.437 9.375-6.96 3.175-14.403 2.658-21.938 2.64l-3.773-.006L92 430c-.025-5.82-.043-11.641-.055-17.462-.005-1.982-.012-3.964-.02-5.945-.013-2.843-.018-5.685-.023-8.527l-.015-2.702c0-2.121.05-4.243.113-6.364 1-1 1-1 3.146-1.085ZM102 395c-1.206.983-1.206.983-1.098 2.848A219254099.88 219254099.88 0 0 0 101 404c1.625.054 3.25.093 4.875.125l2.742.07c2.571.048 2.571.048 4.383-2.195-.322-3.1-.322-3.1-1-6-1.645-.194-3.291-.38-4.937-.562l-2.778-.317L102 395Zm-1 16v11c1.936.108 3.874.186 5.813.25l3.269.14c2.998-.112 2.998-.112 4.844-2.206 1.391-2.272 1.391-2.272.449-5.371L114 412c-3.015-1.005-5.042-1.103-8.187-1.062L101 411Z"/><path fill="#F13535" d="M352.063 390.188c4.11 2.536 6.37 4.896 7.75 9.562L360 402c-1 1-1 1-4.563 1.063L352 403l-1-5c-2.887-.82-5.5-1.162-8.5-1.188l-2.281-.042c-2.468.256-4.083 1.002-6.219 2.23l1 3c1.816.725 1.816.725 4.043 1.027l2.506.463c1.74.295 3.479.59 5.219.883 5.347.988 8.99 2.17 13.232 5.627 1.639 3.278 1.642 6.47 1 10-1.876 3.82-4.28 6.297-8.238 7.914-7.804 1.867-16.243 1.895-23.325-2.164-3.068-2.188-4.765-3.912-5.437-7.75.375-2.813.375-2.813 1-5l7 1 .875 2.438c.858 2.695.858 2.695 3.125 3.562 2.144.097 4.291.13 6.438.125l3.496.008c3.107.006 3.107.006 6.066-1.133l-1-5c-1.158-.182-2.315-.364-3.508-.55l-4.617-.762-2.305-.358c-4.642-.78-8.515-1.794-12.57-4.33-1.92-3.344-3-5.752-3-9.625 1.609-3.821 4.299-6.296 7.773-8.5 5.647-2.219 13.635-1.851 19.29.313Z"/><path fill="#7A320E" d="m270.375 387.75 2.398-.078c2.91.429 3.409 1.007 5.227 3.328a121.112 121.112 0 0 1 2.918 7.844l.794 2.32a999.12 999.12 0 0 1 1.641 4.851c.833 2.48 1.68 4.953 2.528 7.426a4545.7 4545.7 0 0 1 1.6 4.715l.766 2.245c.997 2.986 1.753 5.428 1.753 8.599-6.75 1-6.75 1-9 1l-3-10-14 1-4 9h-7c-1.485-4.613.112-8.063 1.71-12.45.289-.812.576-1.626.872-2.464.61-1.715 1.223-3.429 1.842-5.14.95-2.63 1.885-5.265 2.818-7.901a5142.84 5142.84 0 0 1 2.637-7.393c2.463-6.804 2.463-6.804 7.496-6.902ZM270 399c-2.6 6.806-2.6 6.806-3 14h8c-.539-5.277-1.773-9.256-4-14h-1Z"/><path fill="#753211" d="m138.883 388.121 3.535.147 3.707.17 3.73.158c3.049.13 6.097.265 9.145.404v7h-19v9h16v7h-16l1 9 18 1c1.044 3.133.934 3.99 0 7-23.663 2.169-23.663 2.169-28 0v-40c2.747-1.374 4.817-1.013 7.883-.879Z"/><path fill="#7C3611" d="M324 222c8.514-.313 16.603.627 25 2l1-2c3.73.616 7.46 1.244 11.188 1.875l3.197.527 3.095.528 2.841.476c2.718.603 5.128 1.49 7.679 2.594-.125 1.75-.125 1.75-1 4-8.266 6.29-17.568 5.884-27.511 4.701-5.19-.76-10.341-1.7-15.489-2.701l2.228.747c3.385 1.14 6.766 2.29 10.147 3.44l3.504 1.174c7.009 2.396 13.604 5.112 20.121 8.639-4.046 1.349-6.403-.144-10.125-1.75-1.366-.568-2.734-1.135-4.102-1.7l-1.989-.825C350.251 242.29 346.63 241.16 343 240c-2.69-.89-5.376-1.79-8.063-2.688l-3.972-1.324L328 235l1-2-1.438-1.25c-1.772-1.985-2.092-3.165-2.562-5.75a496.44 496.44 0 0 0-1-4Z"/><path fill="#7D492A" d="m227 310 1 2a146.325 146.325 0 0 1-3.625 7.813C219.483 329.925 215.072 339.887 213 351c6.357-2.906 8.87-8.11 11.32-14.379a339.419 339.419 0 0 0 2.47-6.96L228 327l3-1-1-6 4-1c-.432 5.19-1.186 10.02-2.5 15.063-2.438 9.455-2.623 18.196-2.5 27.937l4-1 .367-1.758.508-2.367.492-2.32c.633-2.555.633-2.555 1.64-5.25 1.541-5.131 1.774-10.347 2.204-15.668l.226-2.496.184-2.265C239 327 239 327 241 325c2.067 3.1 2.242 3.627 2.135 7.104l-.06 2.487c-.05 1.322-.05 1.322-.098 2.67l-.076 2.746c-.082 2.894-.18 5.787-.276 8.68a6050.82 6050.82 0 0 0-.172 5.885c-.14 4.81-.293 9.619-.453 14.428h-1l-1-27c-1.19 5.038-1.19 5.038-2.363 10.08-.993 4.088-2.113 7.47-4.637 10.92-2.063.938-2.063.938-4 1-3.073-3.073-2.98-5.575-3.188-9.875.054-6.44 1.177-12.778 2.188-19.125l-1.32 2.922-1.805 3.828-.86 1.922c-2.17 4.53-4.388 6.996-9.015 9.328l-3-1c-.885-7.883.655-13.705 3.866-20.783 1.26-2.814 2.134-4.926 2.134-8.037V321l3-2 .438-2 .562-2a89.47 89.47 0 0 1 4-2l1-3Zm2 20 1 2Z"/><path fill="#702D0D" d="m248 244 2 2-1 2 2 1 1-4 2 6h-2l1 3-1 2h-3l3 5 1-3 1 3 4-2c-.573 2.867-.861 3.861-3 6l4-1 1 5-3 2-1.813-1.5c-2.157-1.783-2.157-1.783-5.187-1.5l-1-3v2h-3l2 6h3l2 6c-2.686-.97-4.846-1.882-7.125-3.625-1.89-1.67-1.89-1.67-4.875-1.375 0-3.112.456-5.942 1-9h-2v-2l-1.938-.313L236 262l-1-3 1-2c3.875 1.75 3.875 1.75 5 4a134.078 134.078 0 0 0 6 3v-2l-2-1v-3l-4 1v-2l-4-1v-2h2l-1-6c1.938.375 1.938.375 4 1l1 2 1-2h2l2-5Z"/><path fill="#834425" d="m228 255 2 1 1 3 3 2c.188 3.125.188 3.125 0 6l-3 1c-.544 3.058-1 5.888-1 9l2 2c.707 1.65 1.38 3.316 2 5h5l2-5 2 1v3h5v-3h4v2l2 1v2l-1.712.06c-2.555.095-5.109.205-7.663.315-.89.03-1.779.062-2.695.094l-2.578.117-2.38.095c-2.202.159-2.202.159-3.972 2.319h-4l-1 3c-1.777 1.605-1.777 1.605-3.938 3.188l-2.152 1.605C220 297 220 297 218 297c1.426-3.452 3.097-5.101 6.125-7.25l2.195-1.578L228 287l-.531-1.89C227 283 227 283 227.5 281.25c.782-3.52.033-6.698-.5-10.25-3.175 3.01-5.737 6.218-8.313 9.75C206.674 296.894 206.674 296.894 197 301c-2.805.156-2.805.156-5 0v-5h2v2c4.79-.3 7.544-2.72 11.133-5.625C207 291 207 291 210 290c.68-1.661 1.344-3.33 2-5 1.541-2.37 3.262-4.585 5-6.813l1.367-1.81c1.16-1.5 2.391-2.944 3.633-4.377h2c1.657-3.752 2.502-7.264 3.125-11.313l.508-3.238L228 255Z"/><path fill="#844325" d="M256 186c4.106 1.52 6.689 4.383 9 8 1.085 2.905 1.718 5.836 2.313 8.875l.51 2.375c.408 1.913.795 3.831 1.177 5.75l2-2c1.526 4.96.485 9.34-.438 14.313-.22 1.253-.22 1.253-.447 2.533A970.038 970.038 0 0 1 269 232h-4l-1 5h-2l-2 11-5 1-1 2v-3l4-3v-3h2v-2l-3.375 1.5C253 243 253 243 251 243c.994-2.983 1.914-4.3 3.938-6.625l1.59-1.852C258 233 258 233 260 232l-.125-2.25c.131-2.887.722-4.275 2.125-6.75l1-3h2l1 4c.94-17.396.94-17.396-5.602-32.977-1.764-1.49-1.764-1.49-4.398-3.023v-2Z"/><path fill="#7A3411" d="M336 269a86.516 86.516 0 0 1 4.063 3.375l2.035 1.773c1.928 1.878 3.534 3.529 4.902 5.852-.313 2.25-.313 2.25-1 4-9.392.783-14.855-2.08-22-8l-3-1 1-3h5l1-4c3.483-1.244 4.854-.838 8 1Z"/><path fill="#7E4C30" d="m367 226 10 1 1 4c-7.988 6.847-15.92 6.75-26 6-6.045-.733-12.025-1.838-18-3l2.228.747c3.385 1.14 6.766 2.29 10.147 3.44l3.504 1.174c7.009 2.396 13.604 5.112 20.121 8.639-4.046 1.349-6.403-.144-10.125-1.75-1.366-.568-2.734-1.135-4.102-1.7l-1.989-.825C350.251 242.29 346.63 241.16 343 240c-2.69-.89-5.376-1.79-8.063-2.688l-3.972-1.324L328 235l1-2-2-2c5.754-.308 10.879.307 16.5 1.5a90.1 90.1 0 0 0 17.688 1.875l2.14.041c4.438-.038 7.048-.911 10.672-3.416h2v-2l-3.938-.375c-2.214-.21-2.214-.21-4.062-.625l-1-2Z"/><path fill="#7A462B" d="M325 123c1.832.195 1.832.195 4 1 1.45 2.18 1.45 2.18 2.688 4.875l1.261 2.68c4.168 9.698 1.837 18.927-1.949 28.445-1.51 2.852-3.135 5.357-5 8 0-4.62 2.08-8.436 3.809-12.676 3.048-8.505 2.906-16.107.043-24.539-.718-1.974-.718-1.974-2.852-2.785l-.445 3.156c-1.181 7.757-2.708 15.117-5.493 22.469-.24.637-.48 1.275-.729 1.932-1.745 4.406-3.917 8.383-6.333 12.443h-2l-.875 1.75L308 176h-2c1.254-3.41 2.692-6.182 4.813-9.125 8.895-13.16 12.192-28.308 14.187-43.875Z"/><path fill="#793614" d="m209 314 5 1-1.094 1.504c-3.273 4.79-4.51 7.698-3.906 13.496h4l2-4h3c-8.542 12.574-8.542 12.574-14 15-2.875-.25-2.875-.25-5-1 .739-8.573 3.851-13.987 8.793-20.95 1.46-2.084 1.46-2.084 1.207-5.05Z"/><path fill="#78310B" d="M139 142c3.758 1.253 5.356 3.085 8 6l.957 1.918c1.516 3.027 3.667 5.469 5.8 8.082 1.81 2.912 1.243 5.656 1.243 9l-6-3-3-1-1 2c-.818-1.413-1.63-2.83-2.438-4.25l-1.37-2.39c-2-3.96-2.313-7.199-2.255-11.61l.028-2.703L139 142Z"/><path fill="#7C2F0A" d="M367 161h2v4l2 1-1.813 1.688c-2.242 2.198-2.242 2.198-3.625 4.75C361.37 179.315 354.72 182.916 348 187l-1-3 3-3-3-1-2-2c6.074-5.882 6.074-5.882 9.938-6.375L357 172l1 2 .625-2.875c1.375-3.125 1.375-3.125 4.5-4.5L366 166l1-5Z"/><path fill="#7C320E" d="M320 276c2.35 1.98 4.678 3.987 7 6l2.375 2c2.1 2.584 2.328 4.73 2.625 8-5.459 1.501-9.124.564-14-2-2.17-1.549-4.036-3.184-6-5l2-2h2l1.438-2.938C319 277 319 277 320 276Z"/><path fill="#DF3D3D" d="M290 386h1l.076 3.09c.094 3.775.194 7.55.296 11.327.044 1.635.085 3.27.125 4.906.058 2.348.122 4.696.187 7.044l.05 2.223c.052 3.832.052 3.832 1.266 7.41.04 2.333.043 4.667 0 7l2.438-.313c4.3.378 6.79 1.89 10.414 4.122 2.072 1.149 3.835 1.736 6.148 2.191v2l-2.063-.5c-3.353-.57-6.54-.567-9.937-.5l1.688.813C304 438 304 438 306.438 439.563c2.583 1.449 4.65 2.02 7.562 2.437v1c-5.784.452-9.42-.828-14.25-3.813l-1.852-1.08c-5.746-3.418-5.746-3.418-7.898-6.107-.36-2.107-.36-2.107-.34-4.563v-2.79l.047-3.002.013-3.082c.017-3.25.054-6.5.092-9.75.016-2.203.03-4.405.042-6.608.033-5.402.083-10.803.146-16.205Z"/><path fill="#835338" d="m115 228 4 1h-2c3.28 3.506 5.217 4.843 10.098 5.273 10.755.276 20.654-1.308 31.166-3.582l3.256-.695 2.909-.65c2.62-.353 4.142-.368 6.571.654l2 3c-1.583.48-3.166.96-4.75 1.438l-2.672.808c-1.532.448-3.07.875-4.621 1.254-3.01.769-5.908 1.847-8.836 2.879C150 240 150 240 147 240v-2l12-4-3.375.656c-27.612 5.139-27.612 5.139-38.117-.433C116 233 116 233 114.938 230.25L115 228Z"/><path fill="#F93231" d="M337 389c6.744-.33 12.095-.495 18 3 3.11 3.11 4.632 5.584 5 10-1 1-1 1-4.563 1.063L352 403l-1-5-13-2 1-2h2v-2l-4-2v-1Z"/><path fill="#76320E" d="M242 335h1l1 28 2-3c2.625-.688 2.625-.688 5-1 1.845 3.69.707 8.046 0 12-1.563 3.625-1.563 3.625-3 6-1.875-.25-1.875-.25-4-1-2.754-3.727-2.253-8.064-2.195-12.484l.008-2.472c.011-2.598.037-5.196.062-7.794.01-1.764.02-3.529.027-5.293.022-4.32.057-8.638.098-12.957Z"/><path fill="#753F21" d="M240 325c1.883 1.577 2.907 2.45 3.323 4.917-.025.722-.05 1.444-.074 2.187l-.062 2.487-.113 2.67-.08 2.746c-.088 2.894-.197 5.787-.306 8.68-.064 1.962-.126 3.924-.186 5.885-.151 4.81-.322 9.62-.502 14.428h-1l-1-27c-1.19 5.038-1.19 5.038-2.363 10.08-.993 4.088-2.113 7.47-4.637 10.92-2.063.938-2.063.938-4 1-2.663-2.663-2.944-4.653-3.098-8.36l.036-2.39.027-2.422L226 349h2l1 13 4-1 .367-1.758.508-2.367.492-2.32c.633-2.555.633-2.555 1.637-5.25 1.304-4.326 1.666-8.568 2.059-13.055.154-1.703.31-3.407.472-5.11l.2-2.264C239 327 239 327 240 325Z"/><path fill="#7C4324" d="M315 239c5.433 1.45 10.535 3.157 15.625 5.563 4.452 2.1 8.582 3.363 13.375 4.437 1.68.63 3.355 1.28 5 2v2c-6.184-1.243-12.044-2.92-18-5l15 8c-4 1-4 1-7 0l-1-2c-1.621-.743-3.249-1.476-4.902-2.145-2.248-.916-4.451-1.912-6.66-2.917-3.425-1.532-6.859-2.803-10.438-3.938-2-1-2-1-3-3l2-3Z"/><path fill="#7A320D" d="m170 151 3 3-2 3h2l.313 1.938L174 161l3 1v2h2l-1 6c-3.125.5-3.125.5-7 0-3.821-3.474-6.672-7.746-7-13l1.875-.75c2.476-1.456 3.076-2.628 4.125-5.25Z"/><path fill="#783C1C" d="M289 277c4.004 2.974 6.997 6.053 10 10v2l1.875.938L305 292c2.624-1.39 2.624-1.39 5-3l-1.313-1.46c-.556-.633-1.113-1.264-1.687-1.915l-1.688-1.898C304 282 304 282 304 280c4.186 1.395 5.756 4.4 8.188 7.875l1.404 1.934C317 294.617 317 294.617 317 298c-5.32 1.505-8.366.124-13.21-2.207-4.73-3.04-7.603-7.25-10.79-11.793l-2.223-2.688C289 279 289 279 289 277Z"/><path fill="#863C1C" d="M254 208h2l1 4v-4l3 1 1.438 3c1.22 3.139 1.22 3.139 3.75 3.875L267 216c.195 6.055.195 6.055 0 8l-2 2v-6h-4l-1 6-1-3h-2l1 2c.04 2.333.043 4.667 0 7h-1c-2-10-2-10-2.504-12.707-.4-2.308-.4-2.308-1.496-4.293l3-2-2-5Z"/><path fill="#7F3310" d="M377 184c-.65 5.519-3.245 9.191-7.063 13.125-4.55 2.904-10.756 6.411-16.277 5.48L352 202l3.125-.875c3.325-.948 6.603-2.008 9.875-3.125v-2l-4-1 3-6h2v-2c1.457-.504 2.916-1.003 4.375-1.5l2.46-.844C375 184 375 184 377 184Z"/><path fill="#79472E" d="M260 326c2.45.836 2.45.836 5 2 .813 2.625.813 2.625 1 5h-2l.656 2.965c4.051 18.817 4.051 18.817-.656 28.035-2.494-.344-3.731-.722-5.5-2.555-1.998-3.257-2.82-6.641-3.688-10.32l-.537-2.105c-.997-4.09-1.468-7.779-1.275-12.02l2 1c.476 2.872.842 5.671 1.125 8.563l.262 2.443c.212 1.997.414 3.995.613 5.994h2l1 5 3 1c4.774-9.547-.936-25.236-3-35Z"/><path fill="#712D0D" d="m368 159 3 1v5h-2v-4h-2l-.125 2.313C366 166 366 166 363 167.688L360 169l-1 2 2 1h-2l-1 3-2-2c-5.221.435-9.534 2.82-13.563 6.063-2.444 1.942-4.531 2.866-7.437 3.937l-3 2-3-1 1.857-1.11c2.885-1.73 5.764-3.465 8.643-5.202l3.155-1.905c7.052-4.293 13.914-8.766 20.558-13.669 1.545-1.112 3.16-2.124 4.787-3.114Z"/><path fill="#7C2F09" d="M209 282c1.256 2.068 2.036 3.43 1.883 5.879-1.297 3.115-3.355 4.355-6.07 6.308l-2.856 2.106c-3.088 1.783-5.435 2.357-8.957 2.707v-5l3 1 .25-1.688c.976-3.01 2.702-4.934 4.75-7.312l4 1 1-2a101.46 101.46 0 0 1 3-3Z"/><path fill="#DB4143" d="M363 377a324.19 324.19 0 0 1 4.875 2.25l2.742 1.266c2.708 1.686 3.232 2.572 4.383 5.484.26 2.214.26 2.214.275 4.645l.029 2.77-.003 2.968.013 3.062c.006 2.134.006 4.267.002 6.4-.003 3.275.02 6.548.045 9.823.003 2.072.003 4.143.002 6.215l.028 2.98-.019 2.75.002 2.427L375 432l-3 2 .02-1.84c.066-6.31.112-12.62.145-18.93.015-2.356.035-4.713.061-7.069.037-3.383.054-6.766.067-10.15.015-1.056.03-2.112.047-3.2v-2.972l.02-2.618c-.44-2.712-1.207-3.568-3.36-5.221-2.103-.714-2.103-.714-4-1v-2h-2v-2Z"/><path fill="#792F08" d="M189 278h2v2l5-2a396.053 396.053 0 0 1-2.375 4c-.44.743-.882 1.485-1.336 2.25L191 286h-2l-1 3 2 3c-4.022 2.968-7 4.524-12 5 2.673-7.129 5.726-13.449 11-19Z"/><path fill="#7E4B2D" d="m162 265 3 1-3 1v2l-5 2v2c-3.462 3-3.462 3-6 3l-.938 1.875L148 282c9.647-.69 16.317-5.645 24-11l3-2v3c-1.421 1.334-1.421 1.334-3.395 2.664l-2.146 1.461-2.272 1.5-2.236 1.523c-4.854 3.269-8.155 4.992-14.138 4.914l-2.731-.027L146 284c-.375-3.275-.299-4.605 1.723-7.281 9.052-8.584 9.052-8.584 14.277-11.719Z"/><path fill="#7D4021" d="M273 320a90.488 90.488 0 0 1 4 4v2h2l1.625 3.188c2.71 4.754 6.085 8.049 11.375 9.812v-3h2l-1 5c-5.253-.375-8.512-2.147-12-6-1.823-2.584-3.453-5.242-5-8l.938 2.75c.79 2.416 1.491 4.778 2.062 7.25-3-1-3-1-5-3-2.584-.167-2.584-.167-5 0l2-1c.798-3.19 1.1-5.513.438-8.75L271 322l2-2Z"/><path fill="#794D36" d="m166 123 3 1 .148 3.027.227 3.91c.07 1.288.14 2.576.21 3.903.138 1.043.274 2.086.415 3.16l2 1c.414 2.504.414 2.504.625 5.563l.227 3.066L173 150h-2c-.65-2.52-1.295-5.04-1.938-7.563l-.552-2.134A108.077 108.077 0 0 1 166 127c-3.76 6.186-4.511 11.12-4.727 18.34L161 148l-2 1c-.598-9.219-.306-16.218 5-24l2-2Z"/><path fill="#7C4D30" d="M183 266c0 3 0 3-2.117 5.156l-2.758 2.344c-2.863 2.447-5.03 4.356-7.125 7.5h-2l-.813 1.688c-1.288 2.51-2.716 4.905-4.187 7.312 6.237-.82 10.085-2.306 14.59-6.758C180 282 180 282 182 282c-2.13 5.166-6.162 7.508-11 10-3.456.962-6.67 1.665-10 0 .4-4.95 2.932-7.587 6.25-11l1.45-1.54c4.529-4.787 9.071-9.426 14.3-13.46Z"/><path fill="#824727" d="M220 204c2 1 2 1 2.633 2.848l.492 2.214.508 2.223L224 213l4-4c0 3 0 3-1 5 .088 2.003.243 4.004.438 6 .562 5.924.562 5.924.562 8l1 3-5 1-.621-3.648-.816-4.727-.409-2.406c-.668-4.233-.668-4.233-2.154-8.219a77.923 77.923 0 0 1-.063-4.625l.028-2.477L220 204Z"/><path fill="#7C4C36" d="M325 123c1.832.195 1.832.195 4 1 1.45 2.18 1.45 2.18 2.688 4.875l1.261 2.68c4.168 9.698 1.837 18.927-1.949 28.445-1.51 2.852-3.135 5.357-5 8 0-4.62 2.08-8.436 3.809-12.676 2.975-8.301 3.082-16.164.125-24.414-1.179-2.411-2.679-3.51-4.934-4.91v-3Z"/><path fill="#7C492E" d="M266 267c5.429 5.011 9.437 11.169 13.563 17.25 2.476 3.58 4.85 6.218 8.437 8.75l1 2a82.873 82.873 0 0 0 5.563 2.125l3.066 1.07L300 299l1-2v4c-9.345-.334-14.09-4.794-20.313-11.438-5.691-6.497-10.675-13.536-15.687-20.562l1-2Z"/><path fill="#833916" d="m234 266 1 2 3 1v3h-2l1 9-3 2c-3.127-2.085-3.83-2.58-5-6-.448-2.916-.336-4.978 0-8 2.5-2 2.5-2 5-3Z"/><path fill="#7D3C1D" d="M160 150h2l1 4 4-2 3 2v2l-6 1c1.936 5.162 4.304 8.912 7.89 13.105 1.11 1.895 1.11 1.895.782 4.133L172 176c-2.867-1.285-4.976-2.571-7-5v-2l-2-1 4 1-1.363-1.656c-1.781-2.55-2.776-4.92-3.825-7.844l-1.042-2.844C160 154 160 154 160 150Z"/><path fill="#FE2524" d="M314 391h2l1 43-4 2 1-45Z"/><path fill="#F9302F" d="M337 403c3.866 1.041 7.495 2.037 11 4v2l2 1c-2.434 1.217-4.418 1.32-7.125 1.563l-2.758.253L338 412v-2l-2.313-.375C333 409 333 409 330 407v-3l6 1 1-2Z"/><path fill="#7B3E1C" d="M141 171c2.692 1 4.953 1.967 7.313 3.625 3.74 1.913 6.506 1.512 10.687 1.375l2 1v2l5 1c1.125 3.75 1.125 3.75 0 6l2.938.813L172 188l1 3c-4.035-1.59-8.018-3.282-12-5v-3h3l-9-5 1 2c-4.544-.535-7.295-2.399-11-5a85.912 85.912 0 0 0-4-2v-2Z"/><path fill="#7A472E" d="m224 270 1 3a81.25 81.25 0 0 1-5 6.688l-1.547 1.902a624.395 624.395 0 0 1-3.07 3.732 198.913 198.913 0 0 0-3.324 4.166C207.94 294.6 203.077 298.421 197 301c-2.805.156-2.805.156-5 0v-5h2v2c4.79-.3 7.544-2.72 11.133-5.625C207 291 207 291 210 290c.68-1.661 1.344-3.33 2-5 1.541-2.37 3.262-4.585 5-6.813l1.367-1.81c1.16-1.5 2.391-2.944 3.633-4.377h2v-2Z"/><path fill="#7A300C" d="M140 405h15v6h-15v-6Z"/><path fill="#753008" d="m214 314 2 2-2 7 2 1 2-5c1 2 1 2 1 6-2.438 1.625-2.438 1.625-5 3l-1 2h-4c-1.04-4.336-1.402-6.278.813-10.25L212 317l2-3Z"/><path fill="#7A320A" d="m116 184 11 3c1 5 1 5 1 9-3.078-.34-4.65-.674-6.95-2.813L119.314 191c-2.282-2.962-2.282-2.962-5.313-5l2-2Z"/><path fill="#723B1F" d="M160 247c-6.143 6.143-20.324 8.8-28.723 9.176-3.707-.286-6.096-1.24-9.277-3.176l-1-3 2-2 3 1-2 2c3.606 2.307 6.31 2.086 10.5 1.688l3.406-.301c5.096-.518 5.096-.518 9.094-3.387 4.454-1.314 8.328-2.292 13-2Z"/><path fill="#7F4222" d="m171 230 2 3c-1.583.48-3.166.96-4.75 1.438l-2.672.808c-1.532.448-3.07.875-4.621 1.254-3.01.769-5.908 1.847-8.836 2.879C150 240 150 240 147 240v-2l2.59-.84 3.347-1.097 3.34-1.09c2.604-.712 2.604-.712 3.723-1.973l-4-2c1.748-.365 3.498-.716 5.25-1.063l2.953-.597c2.715-.33 4.293-.398 6.797.66Z"/><path fill="#6F3E25" d="M139 139h2c1.508 1.75 1.508 1.75 3.125 4l1.633 2.25L147 147l-1 2-3.71-4.59c-1.257-1.543-1.257-1.543-3.29-2.41 1.16 11.134 1.16 11.134 6 21v2h2c1.625 1.5 1.625 1.5 3 3l-1 3c-7.321-7.197-12.068-14.485-12.375-25 .061-3.344.397-4.033 2.375-7Z"/><path fill="#7A3B18" d="M307 226c8.244.48 16 1.978 24 4l-4 1v2l2 1c-3.464 1.155-4.681.801-8.125-.188l-2.695-.73C316 232 316 232 315.195 229.887L315 228h-4v2l-4-1v-3Z"/><path fill="#813211" d="m252 267 2.813 1.563c3.115 1.838 3.115 1.838 6.187.437l3 7h-5v3h-4v-2l-3-1 1-3-2-3 1-3Z"/><path fill="#753313" d="M232 214c2.143-.39 2.143-.39 4-1l-.5 1.75c-.645 2.517-.645 2.517-.5 6.25-1.938.563-1.938.563-4 1-1-1-1-1-1.063-3.563L230 216h-2v6l4 1-1 6h-2c-1.905-5.103-3.426-9.463-3-15 3-1 3-1 6 0Z"/><path fill="#843D17" d="m209 270 3 1-2 1-.313 1.75c-1.263 4.135-4.79 6.56-8.125 9.125-3.275 2.717-5.875 5.838-8.562 9.125l-1-2c1.375-2.5 1.375-2.5 3-5l1-2h3l.938-1.875L202 277h2l.813-1.813c1.172-2.16 2.38-3.545 4.187-5.187Z"/><path fill="#F13435" d="M324.563 443.563c2.703 1.594 5.056 3.396 7.437 5.437l-7 1 1 3c-3.873-1.144-7.003-2.233-10-5v-2c5.238-3.167 5.238-3.167 8.563-2.438Z"/><path fill="#783F24" d="m368 166 2 2c-5.838 11.58-13.918 17.47-25.629 22.676-2.688 1.152-2.688 1.152-3.371 4.324h-2v-2l-2-1h2l1-2c1.827-.97 3.687-1.877 5.563-2.75 4.757-2.302 8.838-4.795 12.914-8.148C360 178 360 178 362 178l.867-1.734L368 166Z"/><path fill="#6B3216" d="M353 139h2c2.334 4.668 1.561 10.91.246 15.809-1.709 4.51-3.361 8.139-7.246 11.191.47-2.542 1.01-4.015 2.563-6.125 2.101-4.203 1.844-8.252 1.437-12.875l-1-3c.643-3.643.643-3.643 2-5Z"/><path fill="#814A2C" d="M265 334c3 1 3 1 4.465 3.617l2.937 6.5c1.562 3.282 1.562 3.282 5.598 5.883v-12h2c1.382 2.765 1.095 5.046 1.063 8.125l-.028 3.32L281 352l-3 1c-5.41-2.734-7.491-5.894-9.875-11.188l-.93-1.943C265 335.23 265 335.23 265 334Z"/><path fill="#8D4222" d="m228 255 2 1 1 3 3 2c.188 3.125.188 3.125 0 6l-3 1-1 2-5 1 3-16Z"/><path fill="#7F4F36" d="M379 182c-.369 6.147-1.9 8.69-6 13l-3-1 2.375-2.188c2.51-2.69 3.41-4.433 4.625-7.812l-2.09.805c-5.935 2.23-11.689 3.971-17.91 5.195v-2c2.913-1.01 5.831-2.006 8.75-3l2.5-.867 2.422-.82 2.222-.762C375 182 375 182 379 182Z"/><path fill="#702A0A" d="M174 206h5v1h-5v-1Zm-3 1c2.75-.054 5.5-.094 8.25-.125l2.355-.05c7.12-.062 7.12-.062 10.395 2.175l-1 3c-1.604.027-3.208.046-4.813.063l-2.707.035C181 212 181 212 178 211c-2.333-.04-4.667-.044-7 0v-4Z"/><path fill="#774A2E" d="m164.563 216.25 2.94.203C170 217 170 217 172 220l-42-1 1-2 2.247.016c3.355.02 6.71.034 10.065.047l3.538.025 3.388.01 3.127.016c3.982-.172 7.104-1.191 11.197-.864Z"/><path fill="#6B3D24" d="M112 205c10.056-.141 19.976.271 30 1v1h-28c3.345 4.204 3.345 4.204 7 8-4.192-.953-5.72-1.633-8.375-5.125L111 207l1-2Z"/><path fill="#E73B3D" d="M344 405c10.558.595 10.558.595 15 4-2 1-2 1-5 1l-1 3-14-1v-1l9-1v-3l-4-1v-1Z"/><path fill="#804B2A" d="m257 282 5 2v3l-4-1-1-4Zm5 1h3l.727 2.246c1.455 3.147 3.002 4.605 5.648 6.817 3.009 2.54 5.874 5.117 8.625 7.937-3.999-.615-6.804-2.603-10-5v-2h-3c-3.875-6.625-3.875-6.625-5-10Z"/><path fill="#793F20" d="M173 241v2l2 1-1.938.875c-2.214.953-2.214.953-3.062 3.125-3.59 1.694-7.096 3.22-11 4l-1-2 5-3-3-1c2.2-2.2 3.578-2.686 6.5-3.625.794-.26 1.588-.52 2.406-.79C171 241 171 241 173 241Z"/><path fill="#7B300C" d="M228 349c3.2.716 5.093 1.19 7 4-.287 2.874-1.086 5.258-2 8-2.063.688-2.063.688-4 1-.872-2.995-1.108-5.636-1.063-8.75l.028-2.422L228 349Z"/><path fill="#7E4E2C" d="m216 325 2 1c-8.542 12.574-8.542 12.574-14 15-2.875-.25-2.875-.25-5-1l1-8h2l-1 7c6.613-2.922 10.506-6.71 14-13l1-1Z"/><path fill="#732D07" d="m321 281 2.188 1.375c2.56 1.48 5.045 2.597 7.812 3.625l-2 2v3c-3.313-.188-3.313-.188-7-1-1.922-2.418-3-3.885-3-7h2v-2Z"/><path fill="#EA3B39" d="M337 389h10l-1 6h5v3l-13-2 1-2h2v-2l-4-2v-1Z"/><path fill="#87421E" d="m227 310 1 2c-.59 1.74-.59 1.74-1.582 3.809l-1.076 2.263-1.155 2.365-1.119 2.354c-1.55 3.232-3.074 6.218-5.068 9.209-.08-1.79-.14-3.583-.188-5.375l-.105-3.023L218 321l3-2 .438-2 .562-2a89.47 89.47 0 0 1 4-2l1-3Z"/><path fill="#7A2D06" d="M205 326h1l.313 2.313c.73 2.858 1.457 3.844 3.687 5.687-2.834 3.254-4.686 4.52-9 5 1.2-10.2 1.2-10.2 4-13Z"/><path fill="#794021" d="M316 220c11.22-.231 21.913.168 33 2v2c-4-.31-8-.623-12-.938l-3.41-.263c-5.888-.465-11.738-1.003-17.59-1.799v-1Z"/><path fill="#7A3C1A" d="M148 150c12.822 10.467 12.822 10.467 15 17l-4-2v-2l-1 1 1 3c-1.875-.25-1.875-.25-4-1-1.25-2.063-1.25-2.063-2-4h2l-1.531-2.117-1.969-2.758-1.969-2.742C148 152 148 152 148 150Z"/><path fill="#6F3C20" d="m162 265 3 1-3 1v2l-5 2v2c-3.462 3-3.462 3-6 3-1.414 2.639-2.372 5.071-3 8h-2c-.375-3.275-.299-4.605 1.723-7.281 9.052-8.584 9.052-8.584 14.277-11.719Z"/><path fill="#703B21" d="m187 175 2.121 2.184c3.298 3.298 6.893 6.208 10.506 9.154 2.948 2.422 5.726 4.913 8.373 7.662-3.91 0-4.953-1.29-7.938-3.75l-2.59-2.11C195 186 195 186 192.825 183.782c-1.966-1.92-3.142-2.398-5.824-2.781v-6Z"/><path fill="#793C1D" d="m132 178 2.313 1.938c2.57 2.204 2.57 2.204 5.687 3.062l1-3 1 2h2v2h-2v2l2.125.313c3.266.78 5.922 2.108 8.875 3.687v2c-7.945-2.383-15.317-5.784-21-12v-2Z"/><path fill="#723D1E" d="m370 249 1 4c-6.319 2.925-11.16 3.547-18 2-2.297-1.05-2.297-1.05-4-2 5.066-1.233 9.863-.944 15.04-.742 2.975.015 2.975.015 4.858-1.766L370 249Z"/><path fill="#6E2D0C" d="M226 404h10v3l-3-1v5c-2.313.625-2.313.625-5 1l-3-2 1-4h2l-2-2Z"/><path fill="#7D4424" d="m313 283 4 2v2c3.967 1.803 7.682 2.492 12 3l-1-3 4 1v4c-5.459 1.501-9.124.564-14-2-2.17-1.549-4.036-3.184-6-5l1-2Z"/><path fill="#7C3F1E" d="M310 217c4.038-.05 8.077-.086 12.115-.11 1.373-.01 2.745-.024 4.118-.04 1.978-.025 3.957-.035 5.935-.045l3.602-.032c3.177.223 5.373.866 8.23 2.227v1c-3.604-.141-7.208-.289-10.813-.438l-3.044-.119A344.712 344.712 0 0 1 310 218v-1Z"/><path fill="#772F07" d="M114 207h17c-4 2-4 2-8 2v3l-3 2a158.814 158.814 0 0 1-6-5v-2Z"/><path fill="#734224" d="M183 266c0 3 0 3-2.117 5.156l-2.758 2.344c-2.863 2.447-5.03 4.356-7.125 7.5h-2l-.75 1.688c-1.466 2.712-3.28 4.948-5.25 7.312.526-3.99 1.523-6.06 4.25-9l1.922-2.086L171 277l2.5-2.625c3.067-2.914 6.259-5.657 9.5-8.375Z"/><path fill="#754830" d="M256 186c4.117 1.525 6.708 4.357 9 8 1.276 3.351 2.09 6.755 2.875 10.25l.68 2.758c1.59 6.701 1.59 6.701.445 8.992a88.027 88.027 0 0 1-4.338-13.677c-1.473-7.12-1.473-7.12-5.912-12.636L256 188v-2Z"/><path fill="#7B310A" d="m196 394 2 1c.18 5.22-.03 9.073-2 14h-2l-1 3v-2h-2c.418-2.926.938-4.9 2.5-7.438 1.69-2.885 2.117-5.265 2.5-8.562Z"/><path fill="#732A0C" d="M242 211h2c.688 2.25.688 2.25 1 5-1.449 2.484-2.424 3.712-5 5-.907 2.113-.907 2.113-1.625 4.563-.26.826-.52 1.652-.79 2.503L237 230h-1c1.507-14.32 1.507-14.32 6-19Zm4 0v3Z"/><path fill="#784226" d="m352 170 2 2c-2.102 1.713-3.894 2.96-6.438 3.938-2.694.978-2.694.978-5.062 3.062-2.477 1.982-4.55 2.913-7.5 4l-3 2-3-1 23-14Z"/><path fill="#6F3D20" d="m349 144 1 2a1838.69 1838.69 0 0 1-4.25 5.75l-1.2 1.633c-2.324 3.125-4.776 5.892-7.55 8.617-1.235 2.133-1.235 2.133-2 4l-2-1c1.36-4.146 3.136-6.417 6.313-9.375 3.782-3.643 6.8-7.248 9.687-11.625Z"/><path fill="#5F2C14" d="M258 409h1v6h-2l.125 2.125c-.142 3.259-.992 5.831-2.125 8.875l6 2-1 2h-7c-1.057-3.2-.952-4.966.215-8.11l.83-2.285.893-2.355.88-2.402c.718-1.953 1.449-3.901 2.182-5.848Z"/><path fill="#FB3030" d="m354 409 6 1c1.255 3.766.37 5.372-1 9l-4-1v-5l-2-1 1-3Z"/><path fill="#6B4026" d="m182 287 1 2c-.996 1.945-.996 1.945-2.438 4.125l-1.433 2.195L178 297l2.082-.91 2.73-1.152 2.708-1.16C188 293 188 293 191 294a273.618 273.618 0 0 1-4.688 2.563l-2.636 1.44c-3.06 1.14-4.595.924-7.676-.003.445-5.04 2.713-7.376 6-11Z"/><path fill="#884F2C" d="M228 271c2 3 2 3 2 6l2 2c2 3 2 3 1.625 5.188L233 286h-6l.5-3c.585-4.027.571-7.935.5-12Z"/><path fill="#743D1D" d="m304 177 1 3h-2l-.688 1.688c-1.698 2.992-3.733 5.047-6.312 7.312h-3l-1 3-4-1 2.992-2.555 3.883-3.32 1.973-1.684 1.894-1.62 1.746-1.492A75.013 75.013 0 0 0 304 177Z"/><path fill="#6E3819" d="M173 150c1.964 2.946 3.535 5.9 5.125 9.063l1.633 3.222C181 165 181 165 181 167h-2v-3h-2c-4-4.47-4-4.47-4-7h-2l2-7Z"/><path fill="#6C341A" d="M112 389c5.298.589 5.298.589 7.813 2.063 1.9 3.1 2.333 6.364 2.187 9.937-1.438 3-1.438 3-3 5-1-2-1-2-.375-5.438L119 397c-1.354-1.772-1.354-1.772-3-3v-3h-4v-2Z"/><path fill="#7A462D" d="M114 182c4.937.616 9.573 1.581 14.375 2.938l3.71 1.027C135 187 135 187 136 189c-4.524.215-7.76-.474-12-2-5.041-1.827-5.041-1.827-10-1v-4Z"/><path fill="#792D08" d="M379 206c-.063 1.75-.063 1.75-1 4-2.242 1.595-4.536 2.745-7 4v-3l-2-1 1-3c2.966-1.165 5.846-1.088 9-1Z"/><path fill="#E73D3E" d="M352 391c3.375 1.396 5.116 2.86 7 6 .75 2.688.75 2.688 1 5-1 1-1 1-4.563 1.063L352 403v-2l5-1-1-3-3-1-1-5Z"/><path fill="#643821" d="M242 328h1l-1 41h-1c-.193-5.035-.371-10.07-.537-15.106-.058-1.712-.12-3.424-.187-5.136-.094-2.465-.175-4.93-.253-7.395l-.097-2.308c-.117-4.17.178-7.311 2.074-11.055Z"/><path fill="#772D08" d="M264 351h1c.37 7.508.37 7.508-1.5 10l-1.5 1v-2h-2l-2-7 2.438-.438c2.483-.303 2.483-.303 3.562-1.562Z"/><path fill="#6E3119" d="m265 389 2 1-.91 2.09c-2.667 6.591-3.465 10.922-2.09 17.91l-2 1v-2h-2l-1 2c.47-7.84 3.23-14.72 6-22Z"/><path fill="#6C3C23" d="m253 337 2 1c.476 2.872.842 5.671 1.125 8.563l.262 2.443c.212 1.997.414 3.995.613 5.994h2l1 5h2v2c-1.863-.133-1.863-.133-4-1-3.587-7.447-4.672-15.819-5-24Z"/><path fill="#7F482C" d="M278 329c3.298 1.1 3.834 1.784 5.875 4.438 2.44 2.976 4.308 4.552 8.125 5.562v-3h2l-1 5c-5.462-.39-8.08-2.254-12-6-3-3.5-3-3.5-3-6Z"/><path fill="#7C3712" d="m186 270 2.375 1.063c2.57 1.255 2.57 1.255 4.79-.004.605-.35 1.21-.7 1.835-1.059a367.08 367.08 0 0 1-2.813 3.438l-1.582 1.933C189 277 189 277 186 278c-2-2-2-2-2.125-4.625L184 271l2-1Zm2 2 1 3Z"/><path fill="#79452D" d="m255 185-1 2-3.313-.188c-4.707-.033-8.81 1.214-13.269 2.63C235 190 235 190 232 189c8.294-4.425 13.662-5.179 23-4Z"/><path fill="#E63A3D" d="M312 380a1437.687 1437.687 0 0 1-5.875 3.5l-3.305 1.969C300 387 300 387 298 387v-4c4.524-3.49 8.552-4.52 14-3Z"/><path fill="#742D08" d="M132 249c1.813 2.063 1.813 2.063 3 4-1 1-1 1-3.75 1.25-3.584-.276-5.349-1.202-8.25-3.25 1.964-3.928 5.37-3.18 9-2Z"/><path fill="#672A09" d="M318 207h11v2l-6.152.684c-1.86.135-1.86.135-2.848 1.316-4.165.16-7.947-.018-12-1 2-2 2-2 3.945-2.195L318 208v-1Z"/><path fill="#FA2F2E" d="M346 440c1.938.813 1.938.813 4 2l1 3h-3l1 4-7 1c.375-2.438.375-2.438 1-5l2-1c.652-2.025.652-2.025 1-4Z"/><path fill="#6C391D" d="M288 281h3c1.973 2.59 1.973 2.59 4.063 5.938 2.337 4.201 2.337 4.201 5.937 7.062l-1 4a48.75 48.75 0 0 1-5.688-6.5l-1.324-1.781C292 288 292 288 292 285h-2l-2-4Z"/><path fill="#6D371C" d="m356 263 4 3c-1 3-1 3-3 4-1.874.07-3.75.084-5.625.063l-3.04-.028L346 270l4-1v-3h-2v-2h5v2h-2v2h6l-1-5Z"/><path fill="#61270B" d="M156 162c3.335 1.112 4.637 2.474 7 5l-1-3 2-1v2l2 1 1 2-2 1 1 3-4 2-1.313-3.313c-1.196-2.825-2.394-4.613-4.687-6.687v-2Z"/><path fill="#75472B" d="M167 131h2l.375 3.438L170 138l2 1c.414 2.504.414 2.504.625 5.563l.227 3.066L173 150h-2c-.671-2.603-1.337-5.207-2-7.813l-.578-2.236c-.775-3.056-1.422-5.785-1.422-8.951Z"/><path fill="#57250B" d="m152.688 205.938 2.126.302A895.9 895.9 0 0 1 160 207c-3.68 2.454-6.444 2.228-10.688 2.125l-2.126-.027c-1.73-.024-3.458-.06-5.186-.098v-3c3.78-1.26 6.844-.64 10.688-.063Z"/><path fill="#6A3719" d="m367 194 5 1c-4.476 4.321-10.016 6.546-16 8-2.34-.395-2.34-.395-4-1l3.125-.875c3.325-.948 6.603-2.008 9.875-3.125v-2h2v-2Z"/><path fill="#845135" d="m224 270 1 3c-.865 1.626-.865 1.626-2.238 3.355l-1.487 1.885-1.588 1.947-1.552 1.983c-1.324 1.655-2.724 3.248-4.135 4.83h-2c1.62-3.545 3.726-6.59 6-9.75l2.125-2.984L222 272h2v-2Z"/><path fill="#813D1B" d="M179 238h10c-2.22 2.22-3.985 3-6.875 4.188l-2.617 1.105c-2.673.754-3.937.646-6.508-.293v-3l5-1v2h3v-2l-2-1Z"/><path fill="#7A4024" d="m318 228 13 2-4 1v2l2 1c-3.766 1.255-5.372.37-9-1l1-3-3-1v-1Z"/><path fill="#FB2F2D" d="M333 448v5l-6 2-3-5 4-1 2.188-.563C332 448 332 448 333 448Z"/><path fill="#683A1D" d="M141 171c2.7 1.003 4.988 1.992 7.375 3.625 3.347 1.753 5.9 1.594 9.625 1.375l-2 2v2c-4.544-.535-7.295-2.399-11-5a85.912 85.912 0 0 0-4-2v-2Z"/><path fill="#742E0B" d="M350 260c2.755.38 3.82.807 5.75 2.875C357 265 357 265 357 268h-6c0-2 0-2 1-3l-2-3v-2Z"/><path fill="#663317" d="m197 388 2 4-3 1 .25 3.125c-.288 4.465-1.536 6.398-4.25 9.875-1-2-1-2 .215-5.695.566-1.48 1.14-2.956 1.722-4.43l.881-2.285c.72-1.866 1.45-3.728 2.182-5.59Z"/><path fill="#80492D" d="M342 275c2.563 2.25 2.563 2.25 5 5-.348 2.172-.348 2.172-1 4-1.458.054-2.916.093-4.375.125l-2.46.07C337 284 337 284 335 282c3.694-1.231 6.206-.644 10 0v-3h-2l-1-4Z"/><path fill="#854224" d="M264 240h1c.125 7.75.125 7.75-1 10h-2v2l-4-1 4-4-1-2c1.375-2.625 1.375-2.625 3-5Z"/><path fill="#7B4A28" d="m116 186 1.5 2.125c2.697 3.101 5.529 5.218 8.89 7.543L128 197v2c-4.804-1.456-8.68-4.269-12-8-.766-2.133-.766-2.133-1-4l1-1Z"/><path fill="#662810" d="m280 418 2 1-2 3h2l1 3-1 2 6 1v2h-7l-3-10 2-2Z"/><path fill="#5C250C" d="M266 388c1.437-.081 2.874-.14 4.313-.188l2.425-.105c2.262.293 2.262.293 4.055 1.68C278 391 278 391 278 393l-1.813-1c-2.24-1.208-2.24-1.208-5.187-1l1 4-3-1c-.563-1.938-.563-1.938-1-4l-2-2Z"/><path fill="#FC3132" d="m343 367 8 4c-1.75 1.563-1.75 1.563-4 3-2.25-.313-2.25-.313-4-1a88.406 88.406 0 0 1-1-5l1-1Z"/><path fill="#7B4D36" d="M278 338h2c1.382 2.765 1.095 5.046 1.063 8.125l-.028 3.32L281 352l-3 1-2-2h3l-1-13Z"/><path fill="#7A3D1C" d="M280 300c3.438 1.528 6.19 3.502 9 6v2h-3l-2 1c-2.503-2.938-3.47-5.179-4-9Z"/><path fill="#773919" d="M312 254c3.191.633 5.512 1.756 8.25 3.5l2.14 1.344L324 260v1c-7.652.174-7.652.174-10-1-1.25-3.063-1.25-3.063-2-6Z"/><path fill="#652D13" d="m350 206-1 3c-2.27.054-4.542.093-6.813.125l-3.832.07C335 209 335 209 332 207l7.875-.5 2.262-.145C347.773 206 347.773 206 350 206Z"/><path fill="#7E421E" d="M330 165c0 3.59-.664 4.109-3 6.688l-1.688 1.886L324 175l-1-2h-2c.125-1.875.125-1.875 1-4 2.938-1.125 2.938-1.125 6-2l2-2Z"/><path fill="#E63B3B" d="m325 366 12 1v2l-2.563-.25c-3.36.244-4.435.634-7.187 2.313L324 373l-2-1 3-2v-4Z"/><path fill="#732E0A" d="M169 254c-1.313 3.438-1.313 3.438-3 7l-3 1-2-5c2.466-3.115 4.108-3.316 8-3Z"/><path fill="#762C0C" d="M231 189h7l1 2-1 3h2l-1 2c-3.438-1.25-3.438-1.25-7-3-.938-2.188-.938-2.188-1-4Z"/><path fill="#7B4323" d="M339 174c-1.452 3.629-3.24 5.154-6.5 7.25l-2.406 1.578C328 184 328 184 326 184v-2c1.65-1.026 3.32-2.023 5-3a101.46 101.46 0 0 0 3-3c3-2 3-2 5-2Z"/><path fill="#6F2906" d="M243 363h1l.313 2.313c.447 2.73.447 2.73 2.312 4.25L248 371c-.313 2.188-.313 2.188-1 4h-4v-12Z"/><path fill="#7F4323" d="m260 326 5 2c.813 2.625.813 2.625 1 5h-2l-1 5h-1l-2-12Z"/><path fill="#723B1E" d="M303 321c1.5 1.313 1.5 1.313 3 3v3c-4.69 1.117-7.538.806-12-1v-1c6.75-1.125 6.75-1.125 9 0v-4Z"/><path fill="#6C3C1D" d="m190 319 2 1-3 6 8-1v2l-9 1c-1-4-1-4 .438-6.75L190 319Z"/><path fill="#DD3D39" d="M352 420v2c-2.725 1.363-4.96 1.17-8 1.188l-3.25.042C338 423 338 423 336 421c2.104-.168 4.208-.334 6.313-.5l3.55-.281A88.24 88.24 0 0 1 352 420Z"/><path fill="#753617" d="m154 253-.938 1.813c-1.164 2.277-1.164 2.277-2.062 5.187l-3 1-3-3c6.129-5 6.129-5 9-5Z"/><path fill="#7E4728" d="M173 241v2l2 1-3 2-1-2-1.645.691-2.167.871-2.145.88C163 247 163 247 160 246c2.2-2.2 3.578-2.686 6.5-3.625 1.191-.39 1.191-.39 2.406-.79C171 241 171 241 173 241Z"/><path fill="#72300B" d="M147 201c3.688.498 5.605 1.1 8 4-2.957 1.478-5.742 1.06-9 1 0-3 0-3 1-5Z"/><path fill="#784A31" d="m368 159 3 1v5h-2v-4h-2l-1 3c-3.063 1.688-3.063 1.688-6 3 1.501-4.204 4.173-5.891 8-8Z"/><path fill="#DA3E42" d="M324.75 443.688C327 445 327 445 329 447h-10v3l-3-2v-2c5.265-3.184 5.265-3.184 8.75-2.313Z"/><path fill="#742A06" d="M234 353c1 3 1 3 .313 5.625C233 361 233 361 230.875 361.813L229 362l-1-5 4-2 1 2 1-4Z"/><path fill="#833A17" d="M269 312c2.154 2.622 3.4 4.644 4 8l-4 1-2-7 2-2Z"/><path fill="#78411D" d="m200 280 2 1a798.778 798.778 0 0 1-3.313 4.375l-1.863 2.46C195 290 195 290 192 292c1.199-3.083 2.477-6.063 4-9h3l1-3Z"/><path fill="#853D1D" d="M238 228h2l1.313 2.75c1.537 3.178 1.537 3.178 3.375 5.5C246 238 246 238 246 240h-2c-4-4.47-4-4.47-4-7h-2v-5Z"/><path fill="#7A452B" d="m380 205 1 4c-4.088 3.846-7.407 6.636-13 8v-2c2.47-1.595 5.035-2.962 7.617-4.367 2.5-1.714 3.33-2.838 4.383-5.633Z"/><path fill="#734129" d="M123 159c4.108 1.45 7.503 3.398 11 6v2c-3.46-1.25-6.147-2.675-9-5l-1 2h-2l1-5Z"/><path fill="#82472D" d="M217 297c-1.198 3.593-2.468 4.42-5.438 6.688l-2.433 1.886C207 307 207 307 205 307c1.416-3.392 3.042-5.097 6-7.25l2.125-1.578C215 297 215 297 217 297Z"/><path fill="#7A3D19" d="m163.125 219.938 3.32.027L169 220l-1 2c-2.941.414-2.941.414-6.563.625l-3.628.227L155 223v-2c2.765-1.382 5.046-1.095 8.125-1.063Z"/><path fill="#6E3015" d="M281 403c2.125 3.188 2.502 5.265 3 9l-1-2-8 3 1-4h5v-6Z"/><path fill="#89421B" d="M231 319h3a852.64 852.64 0 0 1-.438 4.313c-.08.8-.162 1.6-.246 2.425C233 328 233 328 232 331l-2-1 .563-2.75c.4-2.977.263-4.461-.563-7.25l1-1Z"/><path fill="#6C3A1B" d="m203 306 2 1a591.616 591.616 0 0 1-2.813 3.375l-1.582 1.898c-2.573 2.768-4.978 3.977-8.605 4.727 3.187-4.334 6.864-7.619 11-11Z"/><path fill="#7E3A18" d="M279 309c2.754 1.377 3.515 3.367 5 6l-2 1 3 3-2 1v-2l-3-1-1-3c-1.5-1.667-1.5-1.667-3-3h2l1-2Z"/><path fill="#682609" d="M236 257c3.875 1.75 3.875 1.75 5 4l3 2-4 2v-2l-1.938-.313L236 262l-1-3 1-2Z"/><path fill="#76411F" d="M113 206h10v1h-9c2.21 2.82 4.4 5.53 7 8-5.75-1.75-5.75-1.75-8-4v-5Z"/><path fill="#723D26" d="M230 191h2v2l6 2v2h-8v-6Z"/><path fill="#7D4224" d="M356 189v2a475.205 475.205 0 0 1-5.875 1.625l-3.305.914L344 194l-2-2a646.822 646.822 0 0 1 4.75-1.5l2.672-.844C352 189 352 189 356 189Z"/><path fill="#762E09" d="M377 184c-.35 3.242-.562 4.615-3.063 6.813L372 192l-2-6c4.75-2 4.75-2 7-2Z"/><path fill="#7C482B" d="m368 166 2 2a285.124 285.124 0 0 1-2.688 4.875l-1.511 2.742c-2.059 2.724-3.572 3.426-6.801 4.383l1-2h2l.867-1.734L368 166Z"/><path fill="#7F3E1F" d="M250 326h1v6h2l1-3 1 8h-2v-3h-2l-1 4c-.928-4.333-.928-7.667 0-12Z"/><path fill="#743D1E" d="M304 280c3.55 1.183 4.456 2.417 6.75 5.313l1.922 2.363C314 290 314 290 313.703 292.293L313 294l-1.207-1.863-1.606-2.45-1.582-2.425c-1.505-2.262-1.505-2.262-3.304-3.93C304 282 304 282 304 280Z"/><path fill="#6A2809" d="M301 258c1.342.67 2.675 1.359 4 2.063 1.934 1.078 1.934 1.078 4 .937l-1 3-10-2 1-3 2-1Z"/><path fill="#722E0E" d="m116 227 8 1v3l-4 2c-3-2-3-2-3.688-4.125L116 227Z"/><path fill="#E93837" d="M296 429h2c1.097 3.29.8 4.713 0 8-3.653-1.25-4.78-1.671-7-5l4 1 1-4Z"/><path fill="#EC3637" d="m367 382 2 3-1 3-8-4v-1l7-1Z"/><path fill="#864D2F" d="M161 235c-2.186 2.186-3.539 2.683-6.438 3.625l-2.37.79C150 240 150 240 147 240v-2c9.41-3.444 9.41-3.444 14-3Z"/><path fill="#843B16" d="m253 188-1 3-3-1c-2.638.394-2.638.394-5 1v-3c3.069-1.534 5.7-.55 9 0Z"/><path fill="#692B10" d="M180 169h4l2 5-2 1c-2.625-.938-2.625-.938-5-2l1-4Z"/><path fill="#733F22" d="M314 163h2l-2 5h-2l-.875 1.75L308 176h-2c1.552-4.968 4.51-9.179 8-13Z"/><path fill="#723418" d="m264 416 1 2 3 1-1.875.625c-2.972 1.923-3.255 4.04-4.125 7.375h-1c-.37-6.4-.37-6.4 1.5-9.438L264 416Z"/><path fill="#6C3413" d="m234 395 7 1c.688 1.813.688 1.813 1 4-1.438 1.75-1.438 1.75-3 3l-2-1v-6l-3-1Z"/><path fill="#F92D2C" d="m335 389 8 2-2 1v2c-2 1.625-2 1.625-4 3-2-6.875-2-6.875-2-8Z"/><path fill="#673117" d="M250 367c.688 1.625.688 1.625 1 4-1.438 3.25-1.438 3.25-3 6l-4-1 1-2h2l.375-1.813C248 370 248 370 250 367Z"/><path fill="#803108" d="M137 266h7l1 3h-9l1-3Z"/><path fill="#714430" d="m342 218 2 2-17-1v-1c5.074-1.17 9.929-1.166 15 0Z"/><path fill="#794D31" d="m328 287 4 1v4c-5.415 1.23-5.415 1.23-8.375.063L322 291l7-1-1-3Z"/><path fill="#703D18" d="M321 277a306.48 306.48 0 0 1 4 2.813l2.25 1.582L329 283v3c-2.622-1.049-3.794-1.65-5.25-4.125L323 280h-2v-3Z"/><path fill="#7B3A1F" d="M260 261v2h2l1 3h-4v-2l-4 2v-3c3-2 3-2 5-2Z"/><path fill="#6D381F" d="M148 150c1.132.908 2.255 1.827 3.375 2.75l1.898 1.547c1.81 1.785 2.728 3.382 3.727 5.703-2.487-.388-3.723-.71-5.484-2.559l-1.266-1.879-1.297-1.87C148 152 148 152 148 150Z"/><path fill="#F92E2E" d="M336 446c1.938.813 1.938.813 4 2l1 3-2 3-3-2c-.188-3.125-.188-3.125 0-6Z"/><path fill="#6A3319" d="M176 408c4.342 4.342 4.744 8.136 5 14-2.186-2.186-2.683-3.539-3.625-6.438-.26-.782-.52-1.564-.79-2.37C176 411 176 411 176 408Z"/><path fill="#6D2907" d="m194 317 1 4-2 1-1 2-3 2 .5-2.313c.591-2.723.591-2.723.5-5.687 2-1 2-1 4-1Z"/><path fill="#6C2A0D" d="m189 261 2 2-3 1c-1.209 2-1.209 2-2 4h-3c1.477-4.677 1.477-4.677 4.125-6.313L189 261Z"/><path fill="#6F391F" d="M334 251c4.755.576 7.97 2.55 12 5-3.01.934-3.867 1.044-7 0l-1-2c-2.017-1.134-2.017-1.134-4-2v-1Z"/><path fill="#DD3B3B" d="M372 435a546 546 0 0 1-4.875 3.063l-2.742 1.722L362 441l-2-1c3.015-3.478 7.283-7.359 12-5Z"/><path fill="#673D25" d="M234 356h2c-1.75 5.75-1.75 5.75-4 8-2.125-.375-2.125-.375-4-1l1-2h4l1-5Z"/><path fill="#722909" d="M209 311h2l-1.063 2.375L209 316l1 2c-4.75-.75-4.75-.75-7-3l2.438-.875c2.695-.858 2.695-.858 3.562-3.125Z"/><path fill="#7A4B32" d="M226 289v3c-5.349 5-5.349 5-8 5 1.502-4.206 4.286-5.739 8-8Z"/><path fill="#7F4527" d="m168 280 3 1h-2l-.75 1.688c-1.466 2.712-3.28 4.948-5.25 7.312.503-4.401 2.088-6.712 5-10Z"/><path fill="#784228" d="m174 269 2 2-9 7-1-3 8-6Z"/><path fill="#8D4829" d="M231 228h2l-1 5h2l1 4c-1.938-.625-1.938-.625-4-2-.813-3.063-.813-3.063-1-6l1-1Z"/><path fill="#742F0C" d="m136 226-2 3v-2h-2l-1 4a158.623 158.623 0 0 1-5-3v-1c3.406-.778 6.508-1.1 10-1Z"/><path fill="#6A2F19" d="M116 410c.91 3.073 1.089 5.801 1 9l-2 1-.313-3.375L114 413l-3-2c2-1 2-1 5-1Z"/><path fill="#774B39" d="M292 336h2l-1 5c-5.75-.75-5.75-.75-8-3l7 1v-3Z"/><path fill="#7A2F07" d="m287 332 2 3 3 1v3l-5-1c-1.125-3.75-1.125-3.75 0-6Z"/><path fill="#693214" d="m287 326 4 1 1 5h-3c-2-3-2-3-2-6Z"/><path fill="#782E0D" d="M249 272c2 1 2 1 3.125 4.063L253 279c-4.677-1.477-4.677-1.477-6.313-4.125L246 273l3-1Z"/><path fill="#813C15" d="M193 248c-4.625 3-4.625 3-8 3v-2c4.625-2.125 4.625-2.125 8-1Zm-10 3 2 1-3 2 1-3Z"/><path fill="#7A513C" d="M114 182c4.116.475 7.364 1.021 11 3l-1.898-.035-2.477-.028-2.46-.035c-2.214-.047-2.214-.047-4.165 1.098v-4Z"/><path fill="#F91C1E" d="M314 423h1v9h2l-2 4h-2l1-13Z"/><path fill="#6A2808" d="M201 426h6l-1 4h-5v-4Z"/><path fill="#6A2F13" d="M284 412c2.139 2.139 2.427 3.133 3 6l-4 1c-.625-1.813-.625-1.813-1-4l2-3Z"/><path fill="#713617" d="M113 397h2v4l2 1-3 1v2h-2l1-8Z"/><path fill="#6B2B0B" d="m193 294 8 2c-1.75 1.563-1.75 1.563-4 3-2.25-.313-2.25-.313-4-1v-4Z"/><path fill="#743E21" d="m340 248 9 3v2l-9-2v-3Z"/><path fill="#893F18" d="M280 234c5.75 1.875 5.75 1.875 8 3l-1 3-7-4v-2Z"/><path fill="#793E22" d="m161.531 215.918 2.969.27 2.969.23C170 217 170 217 172 220l-15-2c2-2 2-2 4.531-2.082Z"/><path fill="#64331B" d="M368 205h12l-1 2c-2.285.414-2.285.414-5.063.625l-2.785.227L369 208l-1-3Z"/><path fill="#6D2C07" d="m263 405 3 1 1 7h-2v-2l-2-1v-5Z"/><path fill="#72331F" d="m277 393 2 1c.633 2.066.633 2.066 1.125 4.563l.508 2.503L281 403l-3-2v-3l-2-1h2l-1-4Z"/><path fill="#E44443" d="M338 395h13v3l-13-2v-1Z"/><path fill="#E73A39" d="m331 391 1 3-5 4-1-2 5-5Z"/><path fill="#833C16" d="M225 299c0 4.39-2.128 5.77-5 9l-2-2c2.22-2.908 3.93-4.953 7-7Z"/><path fill="#6E391D" d="m189 278 1 2a340.172 340.172 0 0 1-2.375 3.5l-1.336 1.969L185 287h-2c1.527-3.436 3.6-6.12 6-9Z"/><path fill="#8B4816" d="M205 274h2l-2 5h-2v3l-2-1 1-4h2l1-3Z"/><path fill="#732D07" d="m168 261 2 4c-2.375.625-2.375.625-5 1l-2-2c2.75-3 2.75-3 5-3Z"/><path fill="#894019" d="m279 241 5 2v2h2v2c-4.75-1.875-4.75-1.875-7-3v-3Z"/><path fill="#744423" d="M143 187c6.625.75 6.625.75 10 3v2c-3.912-1.156-6.875-2.355-10-5Z"/><path fill="#7E4229" d="m346 166 1 3-6 5v-4c2.5-2.25 2.5-2.25 5-4Z"/><path fill="#6D3B24" d="M353 155c1 3 1 3 .004 5.043l-1.442 2.144-1.433 2.168L349 166c-1-3-1-3-.004-5.043l1.442-2.144 1.433-2.168L353 155Z"/><path fill="#6D3618" d="m237 425 7 2c-2 2-2 2-5.625 2.125L235 429l2-4Z"/><path fill="#FC2D31" d="M331 420c2.125.938 2.125.938 4 2l-3 3-3-1v-3l2-1Z"/><path fill="#873D17" d="m232 299 1 2a135.916 135.916 0 0 1-3 7h-2c.645-3.485 2.101-6.028 4-9Z"/><path fill="#713916" d="m311 265 2.313.938c1.875.74 3.774 1.424 5.687 2.062l-1 4a858.147 858.147 0 0 1-3.5-2.938l-1.969-1.652L311 266v-1Z"/><path fill="#6A412B" d="m123 248 3 1-2 2 3 2v2c-2.438-.813-2.438-.813-5-2l-1-3 2-2Z"/><path fill="#82391A" d="M265 205c2.29 3.435 2.178 4.985 2 9l-4-4 2-1v-4Z"/><path fill="#E83D3A" d="m331 452 1 2h4v2h-7l-1-2h3v-2Z"/><path fill="#EC333C" d="m306 374 2 4-7 1c1-3 1-3 3.063-4.188L306 374Z"/><path fill="#FA302A" d="m324 363 5 1v2l4 1-9-1v-3Z"/><path fill="#E83332" d="M334 361c4.75.875 4.75.875 7 2v2l-7-1v-3Z"/><path fill="#703A1D" d="m204 318 3 1-8 6c1.617-3.235 2.476-4.706 5-7Z"/><path fill="#843C17" d="M259 316h2l1 5-3 2c-1.125-4.75-1.125-4.75 0-7Z"/><path fill="#753514" d="m133 245 1 2-1 2c-3.375.125-3.375.125-7 0l-2-2 9-2Z"/><path fill="#8A4019" d="M212 241h3c-.75 1.938-.75 1.938-2 4-2.125.75-2.125.75-4 1l-1-2 4-1v-2Z"/><path fill="#784320" d="m144 191 9 2c-3.836.959-5.324.919-9 0v-2Z"/><path fill="#733A20" d="M136 188c3.407.448 5.08 1.053 8 3-2.813.688-2.813.688-6 1-1.875-1.438-1.875-1.438-3-3l1-1Z"/><path fill="#783D12" d="m255 185 1 3c-2.547 1.274-3.428.802-6.125.063l-2.195-.59L246 187v-1l3.938.063A59.19 59.19 0 0 0 254 186l1-1Z"/><path fill="#000"/></svg>